{
	"asset":{
		"generator":"Khronos glTF Blender I/O v4.3.47",
		"version":"2.0"
	},
	"scene":0,
	"scenes":[
		{
			"name":"Scene",
			"nodes":[
				16
			]
		}
	],
	"nodes":[
		{
			"name":"Middle 1",
			"translation":[
				0,
				0.6000001430511475,
				0
			]
		},
		{
			"children":[
				0
			],
			"name":"Middle 2",
			"translation":[
				0,
				0.5,
				0
			]
		},
		{
			"children":[
				1
			],
			"name":"Middle 3",
			"translation":[
				0.20000003278255463,
				1.1000001430511475,
				0
			]
		},
		{
			"name":"Index 1",
			"translation":[
				0,
				0.6000001430511475,
				0
			]
		},
		{
			"children":[
				3
			],
			"name":"Index 2",
			"translation":[
				0,
				0.5,
				0
			]
		},
		{
			"children":[
				4
			],
			"name":"Index 3",
			"translation":[
				0.6000000238418579,
				1.1000001430511475,
				0
			]
		},
		{
			"name":"Ring 1",
			"translation":[
				0,
				0.6000001430511475,
				0
			]
		},
		{
			"children":[
				6
			],
			"name":"Ring 2",
			"translation":[
				0,
				0.5,
				0
			]
		},
		{
			"children":[
				7
			],
			"name":"Ring 3",
			"translation":[
				-0.20000000298023224,
				1.1000001430511475,
				0
			]
		},
		{
			"name":"Pinky 1",
			"translation":[
				0,
				0.6000001430511475,
				0
			]
		},
		{
			"children":[
				9
			],
			"name":"Pinky 2",
			"translation":[
				0,
				0.5,
				0
			]
		},
		{
			"children":[
				10
			],
			"name":"Pinky 3",
			"translation":[
				-0.6000000238418579,
				1.1000001430511475,
				0
			]
		},
		{
			"name":"Thumb 1",
			"rotation":[
				0,
				0,
				-5.215405707303944e-08,
				1
			],
			"scale":[
				1.0000001192092896,
				1.0000001192092896,
				1
			],
			"translation":[
				0,
				0.5000001192092896,
				0
			]
		},
		{
			"children":[
				12
			],
			"name":"Thumb 2",
			"rotation":[
				0,
				0,
				-0.3826834559440613,
				0.9238795638084412
			],
			"translation":[
				1.100000023841858,
				1.1920928955078125e-07,
				0
			]
		},
		{
			"children":[
				2,
				5,
				8,
				11,
				13
			],
			"name":"Wrist",
			"rotation":[
				-0.7071067690849304,
				0,
				0,
				0.7071067690849304
			]
		},
		{
			"mesh":0,
			"name":"Cube",
			"skin":0
		},
		{
			"children":[
				15,
				14
			],
			"name":"Armature.005"
		}
	],
	"meshes":[
		{
			"name":"Cube.033",
			"primitives":[
				{
					"attributes":{
						"POSITION":0,
						"NORMAL":1,
						"TEXCOORD_0":2,
						"JOINTS_0":3,
						"WEIGHTS_0":4
					},
					"indices":5
				}
			]
		}
	],
	"skins":[
		{
			"inverseBindMatrices":6,
			"joints":[
				14,
				2,
				1,
				0,
				5,
				4,
				3,
				8,
				7,
				6,
				11,
				10,
				9,
				13,
				12
			],
			"name":"Armature.005"
		}
	],
	"accessors":[
		{
			"bufferView":0,
			"componentType":5126,
			"count":1440,
			"max":[
				1.895495057106018,
				0.25,
				1
			],
			"min":[
				-1,
				-0.25,
				-2.750000476837158
			],
			"type":"VEC3"
		},
		{
			"bufferView":1,
			"componentType":5126,
			"count":1440,
			"type":"VEC3"
		},
		{
			"bufferView":2,
			"componentType":5126,
			"count":1440,
			"type":"VEC2"
		},
		{
			"bufferView":3,
			"componentType":5121,
			"count":1440,
			"type":"VEC4"
		},
		{
			"bufferView":4,
			"componentType":5126,
			"count":1440,
			"type":"VEC4"
		},
		{
			"bufferView":5,
			"componentType":5123,
			"count":1980,
			"type":"SCALAR"
		},
		{
			"bufferView":6,
			"componentType":5126,
			"count":15,
			"type":"MAT4"
		}
	],
	"bufferViews":[
		{
			"buffer":0,
			"byteLength":17280,
			"byteOffset":0,
			"target":34962
		},
		{
			"buffer":0,
			"byteLength":17280,
			"byteOffset":17280,
			"target":34962
		},
		{
			"buffer":0,
			"byteLength":11520,
			"byteOffset":34560,
			"target":34962
		},
		{
			"buffer":0,
			"byteLength":5760,
			"byteOffset":46080,
			"target":34962
		},
		{
			"buffer":0,
			"byteLength":23040,
			"byteOffset":51840,
			"target":34962
		},
		{
			"buffer":0,
			"byteLength":3960,
			"byteOffset":74880,
			"target":34963
		},
		{
			"buffer":0,
			"byteLength":960,
			"byteOffset":78840
		}
	],
	"buffers":[
		{
			"byteLength":79800,
			"uri":"LeftHand.bin"
		}
	]
}
