<?xml version="1.0" encoding="UTF-8" standalone="no"?>
<svg
   width="630.66602"
   height="632.98499"
   viewBox="0 0 630.66602 632.98499"
   version="1.1"
   xml:space="preserve"
   style="clip-rule:evenodd;fill-rule:evenodd;stroke-linecap:round;stroke-linejoin:round;stroke-miterlimit:1.5"
   id="svg45"
   sodipodi:docname="lumoravricon.svg"
   inkscape:version="1.3.2 (091e20e, 2023-11-25, custom)"
   xmlns:inkscape="http://www.inkscape.org/namespaces/inkscape"
   xmlns:sodipodi="http://sodipodi.sourceforge.net/DTD/sodipodi-0.dtd"
   xmlns="http://www.w3.org/2000/svg"
   xmlns:svg="http://www.w3.org/2000/svg"><sodipodi:namedview
     id="namedview45"
     pagecolor="#ffffff"
     bordercolor="#000000"
     borderopacity="0.25"
     inkscape:showpageshadow="2"
     inkscape:pageopacity="0.0"
     inkscape:pagecheckerboard="0"
     inkscape:deskcolor="#d1d1d1"
     inkscape:zoom="1.1455078"
     inkscape:cx="306.85081"
     inkscape:cy="354.86445"
     inkscape:window-width="3440"
     inkscape:window-height="1369"
     inkscape:window-x="1072"
     inkscape:window-y="154"
     inkscape:window-maximized="1"
     inkscape:current-layer="svg45" /><path
     d="m 286.469,0 c 158.107,0 286.469,128.362 286.469,286.469 0,158.106 -128.362,286.469 -286.469,286.469 C 128.362,572.938 0,444.575 0,286.469 0,128.362 128.362,0 286.469,0 Z m 0,38.273 c -136.983,0 -248.195,111.213 -248.195,248.196 0,136.982 111.212,248.195 248.195,248.195 136.983,0 248.195,-111.213 248.195,-248.195 0,-136.983 -111.212,-248.196 -248.195,-248.196 z"
     style="fill:url(#_Radial1)"
     id="path1" /><circle
     cx="286.46899"
     cy="286.46899"
     r="213.666"
     style="fill:url(#_Radial2)"
     id="circle1" /><g
     id="g8"
     transform="translate(-205.531,-157.31)"><clipPath
       id="_clip3"><circle
         cx="492"
         cy="443.77899"
         r="213.666"
         id="circle2" /></clipPath><g
       clip-path="url(#_clip3)"
       id="g7"><circle
         cx="492"
         cy="400.32599"
         r="213.666"
         style="fill:url(#_Radial4)"
         id="circle3" /><g
         id="g6"><clipPath
           id="_clip5"><circle
             cx="492"
             cy="400.32599"
             r="213.666"
             id="circle4" /></clipPath><g
           clip-path="url(#_clip5)"
           id="g5"><ellipse
             cx="492"
             cy="391.41599"
             rx="197.052"
             ry="161.304"
             style="fill:url(#_Radial6)"
             id="ellipse4" /><ellipse
             cx="492"
             cy="350.99899"
             rx="152.002"
             ry="120.887"
             style="fill:url(#_Radial7)"
             id="ellipse5" /></g></g></g></g><path
     d="m 118.101,80.607 5.664,21.486 c 0.097,0.368 0.29,0.704 0.559,0.974 0.27,0.269 0.606,0.463 0.975,0.56 l 21.485,5.664 -21.485,5.664 c -0.369,0.097 -0.705,0.29 -0.975,0.56 -0.269,0.269 -0.462,0.605 -0.559,0.974 l -5.664,21.485 -5.665,-21.485 c -0.097,-0.369 -0.29,-0.705 -0.559,-0.974 -0.27,-0.27 -0.606,-0.463 -0.975,-0.56 l -21.485,-5.664 21.485,-5.664 c 0.369,-0.097 0.705,-0.291 0.975,-0.56 0.269,-0.27 0.462,-0.606 0.559,-0.974 z"
     style="fill:url(#_Radial8)"
     id="path8" /><path
     d="m 563.273,498.199 13.308,50.481 c 0.228,0.866 0.682,1.656 1.315,2.289 0.633,0.633 1.423,1.087 2.289,1.315 l 50.481,13.308 -50.481,13.308 c -0.866,0.228 -1.656,0.682 -2.289,1.315 -0.633,0.634 -1.087,1.423 -1.315,2.289 l -13.308,50.481 -13.308,-50.481 c -0.229,-0.866 -0.682,-1.655 -1.316,-2.289 -0.633,-0.633 -1.422,-1.087 -2.288,-1.315 l -50.481,-13.308 50.481,-13.308 c 0.866,-0.228 1.655,-0.682 2.288,-1.315 0.634,-0.633 1.087,-1.423 1.316,-2.289 z"
     style="fill:url(#_Radial9)"
     id="path9" /><path
     d="m 409.788,244.192 5.664,21.485 c 0.097,0.369 0.29,0.705 0.56,0.974 0.269,0.27 0.605,0.463 0.974,0.56 l 21.485,5.664 -21.485,5.664 c -0.369,0.097 -0.705,0.291 -0.974,0.56 -0.27,0.27 -0.463,0.606 -0.56,0.974 l -5.664,21.486 -5.664,-21.486 c -0.097,-0.368 -0.291,-0.704 -0.56,-0.974 -0.27,-0.269 -0.606,-0.463 -0.974,-0.56 l -21.486,-5.664 21.486,-5.664 c 0.368,-0.097 0.704,-0.29 0.974,-0.56 0.269,-0.269 0.463,-0.605 0.56,-0.974 z"
     style="fill:url(#_Radial10)"
     id="path10" /><path
     d="m 474.701,110.558 c 0,0 0.98,2.648 1.931,5.219 1.125,3.038 3.52,5.434 6.558,6.558 2.572,0.952 5.219,1.931 5.219,1.931 0,0 -2.647,0.98 -5.219,1.931 -3.038,1.125 -5.433,3.52 -6.558,6.559 -0.951,2.571 -1.931,5.218 -1.931,5.218 0,0 -0.979,-2.647 -1.931,-5.218 -1.124,-3.039 -3.52,-5.434 -6.558,-6.559 -2.571,-0.951 -5.219,-1.931 -5.219,-1.931 0,0 2.648,-0.979 5.219,-1.931 3.038,-1.124 5.434,-3.52 6.558,-6.558 0.952,-2.571 1.931,-5.219 1.931,-5.219 z"
     style="fill:url(#_Radial11)"
     id="path11" /><defs
     id="defs45"><radialGradient
       id="_Radial1"
       cx="0"
       cy="0"
       r="1"
       gradientUnits="userSpaceOnUse"
       gradientTransform="matrix(0,427.332,-427.332,0,291.359,72.802)"><stop
         offset="0"
         style="stop-color:#a3f2ff;stop-opacity:1"
         id="stop19" /><stop
         offset="0.46"
         style="stop-color:#8a8cee;stop-opacity:1"
         id="stop20" /><stop
         offset="0.82"
         style="stop-color:#c2a8ea;stop-opacity:1"
         id="stop21" /><stop
         offset="1"
         style="stop-color:#ffdfdc;stop-opacity:1"
         id="stop22" /></radialGradient><radialGradient
       id="_Radial2"
       cx="0"
       cy="0"
       r="1"
       gradientUnits="userSpaceOnUse"
       gradientTransform="matrix(0,257.118,-257.118,0,291.359,243.016)"><stop
         offset="0"
         style="stop-color:#7b84ef;stop-opacity:1"
         id="stop23" /><stop
         offset="0.82"
         style="stop-color:#c2a8ea;stop-opacity:1"
         id="stop24" /><stop
         offset="1"
         style="stop-color:#ffdfdc;stop-opacity:1"
         id="stop25" /></radialGradient><radialGradient
       id="_Radial4"
       cx="0"
       cy="0"
       r="1"
       gradientUnits="userSpaceOnUse"
       gradientTransform="matrix(4.89001,263.508,-263.508,4.89001,492,350.484)"><stop
         offset="0"
         style="stop-color:#83a2fe;stop-opacity:1"
         id="stop26" /><stop
         offset="0.73"
         style="stop-color:#aaa8fe;stop-opacity:1"
         id="stop27" /><stop
         offset="1"
         style="stop-color:#c6b6fe;stop-opacity:1"
         id="stop28" /></radialGradient><radialGradient
       id="_Radial6"
       cx="0"
       cy="0"
       r="1"
       gradientUnits="userSpaceOnUse"
       gradientTransform="matrix(4.50978,159.857,-195.284,3.69164,492,392.863)"><stop
         offset="0"
         style="stop-color:#83b8f8;stop-opacity:1"
         id="stop29" /><stop
         offset="1"
         style="stop-color:#beeefe;stop-opacity:1"
         id="stop30" /></radialGradient><radialGradient
       id="_Radial7"
       cx="0"
       cy="0"
       r="1"
       gradientUnits="userSpaceOnUse"
       gradientTransform="matrix(-152.002,1.1801,-0.851965,-93.5684,492,327.578)"><stop
         offset="0"
         style="stop-color:#fff;stop-opacity:1"
         id="stop31" /><stop
         offset="0.47"
         style="stop-color:#f1f9fe;stop-opacity:1"
         id="stop32" /><stop
         offset="1"
         style="stop-color:#cceafb;stop-opacity:1"
         id="stop33" /></radialGradient><radialGradient
       id="_Radial8"
       cx="0"
       cy="0"
       r="1"
       gradientUnits="userSpaceOnUse"
       gradientTransform="matrix(-28.6836,0.280011,-0.16077,-22.2016,118.101,103.733)"><stop
         offset="0"
         style="stop-color:#fff;stop-opacity:1"
         id="stop34" /><stop
         offset="0.47"
         style="stop-color:#f1f9fe;stop-opacity:1"
         id="stop35" /><stop
         offset="1"
         style="stop-color:#cceafb;stop-opacity:1"
         id="stop36" /></radialGradient><radialGradient
       id="_Radial9"
       cx="0"
       cy="0"
       r="1"
       gradientUnits="userSpaceOnUse"
       gradientTransform="matrix(-67.3929,0.657893,-0.377733,-52.1632,563.273,552.535)"><stop
         offset="0"
         style="stop-color:#fff;stop-opacity:1"
         id="stop37" /><stop
         offset="0.47"
         style="stop-color:#f1f9fe;stop-opacity:1"
         id="stop38" /><stop
         offset="1"
         style="stop-color:#cceafb;stop-opacity:1"
         id="stop39" /></radialGradient><radialGradient
       id="_Radial10"
       cx="0"
       cy="0"
       r="1"
       gradientUnits="userSpaceOnUse"
       gradientTransform="matrix(-28.6836,0.280011,-0.16077,-22.2016,409.788,267.318)"><stop
         offset="0"
         style="stop-color:#fff;stop-opacity:1"
         id="stop40" /><stop
         offset="0.47"
         style="stop-color:#f1f9fe;stop-opacity:1"
         id="stop41" /><stop
         offset="1"
         style="stop-color:#cceafb;stop-opacity:1"
         id="stop42" /></radialGradient><radialGradient
       id="_Radial11"
       cx="0"
       cy="0"
       r="1"
       gradientUnits="userSpaceOnUse"
       gradientTransform="matrix(-13.7082,0.13382,-0.0768335,-10.6103,474.701,121.61)"><stop
         offset="0"
         style="stop-color:#fff;stop-opacity:1"
         id="stop43" /><stop
         offset="0.47"
         style="stop-color:#f1f9fe;stop-opacity:1"
         id="stop44" /><stop
         offset="1"
         style="stop-color:#cceafb;stop-opacity:1"
         id="stop45" /></radialGradient></defs></svg>
