{
	"asset":{
		"generator":"Khronos glTF Blender I/O v4.3.47",
		"version":"2.0"
	},
	"scene":0,
	"scenes":[
		{
			"name":"Scene",
			"nodes":[
				0,
				1,
				2,
				3,
				4,
				5,
				6
			]
		}
	],
	"nodes":[
		{
			"mesh":0,
			"name":"Cylinder",
			"rotation":[
				0.7071068286895752,
				0,
				0,
				0.7071068286895752
			],
			"translation":[
				0,
				-0.18852299451828003,
				-2.478756904602051
			]
		},
		{
			"mesh":1,
			"name":"Cube",
			"rotation":[
				0,
				-0.7071068286895752,
				0,
				0.7071068286895752
			],
			"translation":[
				0,
				-0.20406129956245422,
				-2.6548304557800293
			]
		},
		{
			"name":"Top strap shape",
			"rotation":[
				0.7071068286895752,
				0,
				0,
				0.7071068286895752
			],
			"scale":[
				1,
				1,
				0.20266938209533691
			],
			"translation":[
				0,
				3.437594413757324,
				0
			]
		},
		{
			"mesh":2,
			"name":"Top strap",
			"scale":[
				0.3056434988975525,
				1,
				1
			],
			"translation":[
				0,
				0.7208369970321655,
				-1.3281580209732056
			]
		},
		{
			"mesh":3,
			"name":"Side strap",
			"translation":[
				0,
				-0.2169448733329773,
				1.8566030263900757
			]
		},
		{
			"name":"Side strap shape",
			"rotation":[
				0.7071068286895752,
				0,
				0,
				0.7071068286895752
			],
			"scale":[
				1,
				1,
				0.20266938209533691
			],
			"translation":[
				0,
				4.862869739532471,
				0
			]
		},
		{
			"name":"Empty",
			"rotation":[
				0.5000004172325134,
				-0.4999995529651642,
				0.4999995827674866,
				0.5000004172325134
			],
			"translation":[
				-5.408827781677246,
				0.429602712392807,
				-0.6121834516525269
			]
		}
	],
	"meshes":[
		{
			"name":"Cylinder",
			"primitives":[
				{
					"attributes":{
						"POSITION":0,
						"NORMAL":1,
						"TEXCOORD_0":2
					},
					"indices":3
				}
			]
		},
		{
			"name":"Cube.001",
			"primitives":[
				{
					"attributes":{
						"POSITION":4,
						"NORMAL":5,
						"TEXCOORD_0":6
					},
					"indices":7
				}
			]
		},
		{
			"name":"B\u00e9zierCurve",
			"primitives":[
				{
					"attributes":{
						"POSITION":8,
						"NORMAL":9,
						"TEXCOORD_0":10
					},
					"indices":11
				}
			]
		},
		{
			"name":"B\u00e9zierCurve.001",
			"primitives":[
				{
					"attributes":{
						"POSITION":12,
						"NORMAL":13,
						"TEXCOORD_0":14
					},
					"indices":15
				}
			]
		}
	],
	"accessors":[
		{
			"bufferView":0,
			"componentType":5126,
			"count":72,
			"max":[
				1.344512701034546,
				0.3731019198894501,
				0.4500000476837158
			],
			"min":[
				-1.344512701034546,
				-0.06689807772636414,
				-0.4500000476837158
			],
			"type":"VEC3"
		},
		{
			"bufferView":1,
			"componentType":5126,
			"count":72,
			"type":"VEC3"
		},
		{
			"bufferView":2,
			"componentType":5126,
			"count":72,
			"type":"VEC2"
		},
		{
			"bufferView":3,
			"componentType":5123,
			"count":192,
			"type":"SCALAR"
		},
		{
			"bufferView":4,
			"componentType":5126,
			"count":381,
			"max":[
				1.3266724348068237,
				0.9248982667922974,
				1.8750413656234741
			],
			"min":[
				-0.3809109926223755,
				-0.8938215970993042,
				-1.8750413656234741
			],
			"type":"VEC3"
		},
		{
			"bufferView":5,
			"componentType":5126,
			"count":381,
			"type":"VEC3"
		},
		{
			"bufferView":6,
			"componentType":5126,
			"count":381,
			"type":"VEC2"
		},
		{
			"bufferView":7,
			"componentType":5123,
			"count":1668,
			"type":"SCALAR"
		},
		{
			"bufferView":8,
			"componentType":5126,
			"count":3577,
			"max":[
				1.000000238418579,
				1.2849962711334229,
				3.2394070625305176
			],
			"min":[
				-1.000000238418579,
				-1.3404310941696167,
				-0.557128369808197
			],
			"type":"VEC3"
		},
		{
			"bufferView":9,
			"componentType":5126,
			"count":3577,
			"type":"VEC3"
		},
		{
			"bufferView":10,
			"componentType":5126,
			"count":3577,
			"type":"VEC2"
		},
		{
			"bufferView":11,
			"componentType":5123,
			"count":20736,
			"type":"SCALAR"
		},
		{
			"bufferView":12,
			"componentType":5126,
			"count":1225,
			"max":[
				1.9770451784133911,
				0.2897050380706787,
				0.018122639507055283
			],
			"min":[
				-1.9770451784133911,
				-0.28970468044281006,
				-3.1794607639312744
			],
			"type":"VEC3"
		},
		{
			"bufferView":13,
			"componentType":5126,
			"count":1225,
			"type":"VEC3"
		},
		{
			"bufferView":14,
			"componentType":5126,
			"count":1225,
			"type":"VEC2"
		},
		{
			"bufferView":15,
			"componentType":5123,
			"count":6912,
			"type":"SCALAR"
		}
	],
	"bufferViews":[
		{
			"buffer":0,
			"byteLength":864,
			"byteOffset":0,
			"target":34962
		},
		{
			"buffer":0,
			"byteLength":864,
			"byteOffset":864,
			"target":34962
		},
		{
			"buffer":0,
			"byteLength":576,
			"byteOffset":1728,
			"target":34962
		},
		{
			"buffer":0,
			"byteLength":384,
			"byteOffset":2304,
			"target":34963
		},
		{
			"buffer":0,
			"byteLength":4572,
			"byteOffset":2688,
			"target":34962
		},
		{
			"buffer":0,
			"byteLength":4572,
			"byteOffset":7260,
			"target":34962
		},
		{
			"buffer":0,
			"byteLength":3048,
			"byteOffset":11832,
			"target":34962
		},
		{
			"buffer":0,
			"byteLength":3336,
			"byteOffset":14880,
			"target":34963
		},
		{
			"buffer":0,
			"byteLength":42924,
			"byteOffset":18216,
			"target":34962
		},
		{
			"buffer":0,
			"byteLength":42924,
			"byteOffset":61140,
			"target":34962
		},
		{
			"buffer":0,
			"byteLength":28616,
			"byteOffset":104064,
			"target":34962
		},
		{
			"buffer":0,
			"byteLength":41472,
			"byteOffset":132680,
			"target":34963
		},
		{
			"buffer":0,
			"byteLength":14700,
			"byteOffset":174152,
			"target":34962
		},
		{
			"buffer":0,
			"byteLength":14700,
			"byteOffset":188852,
			"target":34962
		},
		{
			"buffer":0,
			"byteLength":9800,
			"byteOffset":203552,
			"target":34962
		},
		{
			"buffer":0,
			"byteLength":13824,
			"byteOffset":213352,
			"target":34963
		}
	],
	"buffers":[
		{
			"byteLength":227176,
			"uri":"headset.bin"
		}
	]
}
